<?xml version="1.0" standalone="no"?>
<!DOCTYPE svg PUBLIC "-//W3C//DTD SVG 20010904//EN"
 "http://www.w3.org/TR/2001/REC-SVG-20010904/DTD/svg10.dtd">
<svg version="1.0" xmlns="http://www.w3.org/2000/svg"
 width="500.000000pt" height="500.000000pt" viewBox="0 0 500.000000 500.000000"
 preserveAspectRatio="xMidYMid meet">
<metadata>
Created by potrace 1.14, written by Peter Selinger 2001-2017
</metadata>
<g transform="translate(0.000000,500.000000) scale(0.100000,-0.100000)"
fill="#000000" stroke="none">
<path d="M3135 3510 c-235 -29 -441 -135 -575 -295 -23 -27 -63 -95 -90 -150
-86 -176 -116 -344 -107 -610 10 -326 85 -532 257 -706 128 -130 284 -202 510
-235 243 -35 535 10 714 110 205 116 332 306 393 586 28 129 25 499 -4 626
-85 364 -291 577 -633 655 -98 22 -355 33 -465 19z m350 -462 c151 -77 217
-240 217 -533 0 -227 -38 -372 -121 -468 -45 -50 -140 -94 -222 -102 -182 -18
-332 71 -392 233 -38 102 -49 181 -49 337 1 312 82 485 255 547 79 28 244 21
312 -14z"/>
<path d="M660 3275 l0 -215 240 0 240 0 0 -765 0 -765 265 0 265 0 2 763 3
762 238 3 237 2 0 215 0 215 -745 0 -745 0 0 -215z"/>
</g>
</svg>
